<?xml version="1.0" encoding="UTF-8"?>
<svg id="logosandtypes_com" data-name="logosandtypes com" xmlns="http://www.w3.org/2000/svg" viewBox="0 0 150 150">
  <defs>
    <style>
      .cls-1 {
        fill: #e71884;
      }

      .cls-2 {
        fill: #f7931e;
      }

      .cls-3 {
        fill: #c014c3;
      }

      .cls-4 {
        fill: #7b18e7;
      }

      .cls-5 {
        fill: none;
      }
    </style>
  </defs>
  <g id="Layer_3" data-name="Layer 3">
    <g id="Layer_3-2" data-name="Layer 3">
      <g id="Layer_2" data-name="Layer 2">
        <path id="Layer_3-3" data-name="Layer 3" class="cls-5" d="M0,0H150V150H0V0Z"/>
      </g>
    </g>
  </g>
  <path class="cls-1" d="M128.86,38.98h11.36c8.67-.88,12.46-11.45,6.31-17.58-1.87-1.87-4.44-3.04-7.29-3.04h-10.38v20.62Z"/>
  <path class="cls-2" d="M24.44,91.66c0,20.38,14.49,34.83,35.34,37.4,5.4-26.64,6.23-51.89,0-74.98-20.85,2.66-35.34,17.39-35.34,37.58Z"/>
  <path class="cls-3" d="M90.08,85.63l2.58-31.97h-25.95c-2.38,0-4.67,.14-6.92,.42v34.83l30.29-3.28h0Z"/>
  <polygon class="cls-4" points="90.08 18.32 110.79 18.32 110.79 88.91 90.08 85.63 90.08 18.32"/>
  <path class="cls-1" d="M110.79,129.53v-43.89H59.78v43.47c2.24,.28,4.53,.42,6.92,.42h44.08Z"/>
</svg>